<svg id="Capa_1" enable-background="new 0 0 510.068 510.068" height="512" viewBox="0 0 510.068 510.068" width="512" xmlns="http://www.w3.org/2000/svg"><g><path d="m469.617 378.711c-3.523-2.18-8.145-1.091-10.324 2.432-21.142 34.168-50.755 62.733-85.638 82.607-35.961 20.488-76.979 31.318-118.621 31.318-88.24 0-169.179-48.254-211.23-125.933-1.971-3.642-6.521-4.998-10.166-3.025-3.643 1.972-4.997 6.523-3.025 10.167 44.676 82.525 130.669 133.791 224.422 133.791 44.241 0 87.827-11.51 126.047-33.285 37.055-21.112 68.511-51.455 90.968-87.748 2.179-3.522 1.09-8.144-2.433-10.324z"/><path d="m30.852 340.953c-10.519-27.427-15.852-56.334-15.852-85.919 0-54.628 18.857-108.097 53.099-150.557 2.601-3.224 2.095-7.946-1.13-10.546s-7.946-2.093-10.546 1.13c-17.895 22.189-31.838 46.978-41.441 73.676-9.942 27.635-14.982 56.67-14.982 86.297 0 31.428 5.668 62.142 16.846 91.29 1.145 2.984 3.988 4.816 7.005 4.816.893 0 1.8-.161 2.684-.499 3.866-1.483 5.8-5.82 4.317-9.688z"/><path d="m435.37 74.698c-48.169-48.17-112.214-74.698-180.336-74.698-66.021 0-128.642 25.137-176.327 70.782-2.992 2.864-3.096 7.612-.231 10.604s7.612 3.097 10.604.232c44.879-42.959 103.816-66.618 165.954-66.618 64.115 0 124.394 24.968 169.729 70.304 45.337 45.336 70.305 105.615 70.305 169.73 0 34.418-7.128 67.642-21.185 98.746-1.706 3.775-.029 8.217 3.745 9.923 1.003.453 2.052.667 3.084.667 2.856 0 5.587-1.641 6.839-4.413 14.941-33.06 22.517-68.361 22.517-104.924 0-68.121-26.528-132.166-74.698-180.335z"/><ellipse cx="156.733" cy="200.78" rx="23.944" ry="23.944" transform="matrix(.4 -.916 .916 .4 -90.008 263.998)"/><path d="m156.732 112.113c-20.951 0-37.997 17.045-37.997 37.998 0 4.142 3.357 7.5 7.5 7.5s7.5-3.358 7.5-7.5c0-12.681 10.316-22.998 22.997-22.998 12.682 0 22.998 10.317 22.998 22.998 0 4.142 3.357 7.5 7.5 7.5s7.5-3.358 7.5-7.5c0-20.953-17.045-37.998-37.998-37.998z"/><ellipse cx="353.336" cy="200.78" rx="23.944" ry="23.944" transform="matrix(.966 -.259 .259 .966 -39.895 98.174)"/><path d="m383.833 157.61c4.143 0 7.5-3.358 7.5-7.5 0-20.952-17.046-37.998-37.997-37.998-20.952 0-37.998 17.045-37.998 37.998 0 4.142 3.357 7.5 7.5 7.5s7.5-3.358 7.5-7.5c0-12.681 10.316-22.998 22.998-22.998 12.681 0 22.997 10.317 22.997 22.998 0 4.142 3.357 7.5 7.5 7.5z"/><path d="m195.261 385.461c-3.497 2.221-4.531 6.855-2.311 10.352 1.429 2.25 3.856 3.48 6.338 3.48 1.375 0 2.767-.378 4.014-1.169l11.931-7.576c39.859-25.311 85.886-38.69 133.104-38.69 4.143 0 7.5-3.358 7.5-7.5s-3.357-7.5-7.5-7.5c-50.07 0-98.878 14.187-141.145 41.027z"/><path d="m63.199 248.946c-3.915-1.354-8.185.723-9.539 4.636l-11.058 31.97c-1.354 3.915.722 8.186 4.637 9.54.812.281 1.639.414 2.451.414 3.108 0 6.015-1.948 7.088-5.05l11.058-31.97c1.354-3.915-.722-8.186-4.637-9.54z"/><path d="m84.411 295.506c3.108 0 6.015-1.948 7.088-5.05l11.058-31.97c1.354-3.915-.722-8.186-4.637-9.54-3.916-1.354-8.185.723-9.539 4.636l-11.058 31.97c-1.354 3.915.722 8.186 4.637 9.54.811.281 1.639.414 2.451.414z"/><path d="m414.6 295.506c3.108 0 6.015-1.948 7.088-5.05l11.058-31.97c1.354-3.915-.722-8.186-4.637-9.54s-8.185.723-9.539 4.636l-11.058 31.97c-1.354 3.915.722 8.186 4.637 9.54.811.281 1.638.414 2.451.414z"/><path d="m449.32 295.506c3.108 0 6.015-1.948 7.088-5.05l11.058-31.97c1.354-3.915-.722-8.186-4.637-9.54s-8.185.723-9.539 4.636l-11.058 31.97c-1.354 3.915.722 8.186 4.637 9.54.812.281 1.639.414 2.451.414z"/></g></svg>